<svg version="1.1" viewBox="0.0 0.0 960.0 96.0" fill="none" stroke="none" stroke-linecap="square" stroke-miterlimit="10" xmlns:xlink="http://www.w3.org/1999/xlink" xmlns="http://www.w3.org/2000/svg"><clipPath id="p.0"><path d="m0 0l960.0 0l0 96.0l-960.0 0l0 -96.0z" clip-rule="nonzero"/></clipPath><g clip-path="url(#p.0)"><path fill="#223366" d="m0 0l960.0 0l0 96.0l-960.0 0z" fill-rule="evenodd"/><path fill="#000000" d="m-30.383278 86.77058l170.71277 -69.23903l152.20236 -11.654035l215.9625 46.931522l100.7825 -30.849035l82.27057 -7.170164l151.1745 27.421143l120.32233 -11.654037l11.310913 121.33961l-952.2907 7.54097z" fill-rule="evenodd"/><path fill="#070331" d="m713.5149 1426.7969l2.1639404 -0.88378906l1.9293213 -0.14880371l2.7374878 0.598999l1.2774658 -0.39367676l1.0428467 -0.091552734l1.9162598 0.3499756l1.5252075 -0.14868164l0.14337158 1.548706l-12.071045 0.09631348z" fill-rule="evenodd"/><path fill="#070331" d="m-22.383278 94.77058l170.71277 -69.23903l152.20236 -11.654035l215.96252 46.931522l100.78247 -30.849035l82.27057 -7.170164l151.1745 27.421143l120.32233 -11.654037l11.310913 121.33961l-952.2907 7.54097z" fill-rule="evenodd"/></g></svg>